PathFileType	4	(X/Y/Z)	/Users/itak/Documents/Research/Walk-IL/dataset/trc/00328_00011.trc
DataRate	CameraRate	NumFrames	NumMarkers	Units	OrigDataRate	OrigDataStartFrame	OrigNumFrames
100.000000	100.000000	4	54	mm	100.000000	70	561
Frame#	Time	RPSI			LPSI			L3			STRN			T10			C7			CLAV			RBAK			LBAK			LSHO			LUPA			LAEL			LAOL			LWTS			LWPS			LFRA			LIFD			LHPS			LHTS			RSHO			RUPA			RAEL			RAOL			RWTS			RWPS			RFRA			RIFD			RHTS			RHPS			RBHD			LFHD			RFHD			LBHD			LHIP			RHIP			RASI			LASI			LKNE			LTHI			LANK			LTIP			LTOE			LMT1			LMT5			LHEE			RKNE			RTHI			RANK			RTIP			RTOE			RMT1			RMT5			RHEE			*53			
		X1	Y1	Z1	X2	Y2	Z2	X3	Y3	Z3	X4	Y4	Z4	X5	Y5	Z5	X6	Y6	Z6	X7	Y7	Z7	X8	Y8	Z8	X9	Y9	Z9	X10	Y10	Z10	X11	Y11	Z11	X12	Y12	Z12	X13	Y13	Z13	X14	Y14	Z14	X15	Y15	Z15	X16	Y16	Z16	X17	Y17	Z17	X18	Y18	Z18	X19	Y19	Z19	X20	Y20	Z20	X21	Y21	Z21	X22	Y22	Z22	X23	Y23	Z23	X24	Y24	Z24	X25	Y25	Z25	X26	Y26	Z26	X27	Y27	Z27	X28	Y28	Z28	X29	Y29	Z29	X30	Y30	Z30	X31	Y31	Z31	X32	Y32	Z32	X33	Y33	Z33	X34	Y34	Z34	X35	Y35	Z35	X36	Y36	Z36	X37	Y37	Z37	X38	Y38	Z38	X39	Y39	Z39	X40	Y40	Z40	X41	Y41	Z41	X42	Y42	Z42	X43	Y43	Z43	X44	Y44	Z44	X45	Y45	Z45	X46	Y46	Z46	X47	Y47	Z47	X48	Y48	Z48	X49	Y49	Z49	X50	Y50	Z50	X51	Y51	Z51	X52	Y52	Z52	X53	Y53	Z53	X54	Y54	Z54	

71	0.7000000000000001	876.3629760742188	974.2278442382812	207.0230712890625	869.5189208984375	974.705078125	79.131103515625	871.0693969726562	1029.786743164062	148.0517425537109	1091.337036132812	1217.474609375	116.4993896484375	852.516845703125	1150.81884765625	137.7807464599609	883.172607421875	1398.067626953125	112.7505874633789	1042.489013671875	1340.165405273438	110.7283554077148	841.603759765625	1262.116088867188	189.7808990478516	871.8699340820312	1357.905639648438	11.63139629364014	956.1490478515625	1375.594848632812	-47.73851776123047	946.8438720703125	1253.000122070312	-112.7583389282227	988.1687622070312	1050.907470703125	-118.1733169555664	919.6483154296875	1033.557861328125	-70.8472900390625	1092.461669921875	813.774658203125	-51.63999176025391	1064.314208984375	800.661376953125	-113.2351989746094	1013.601806640625	948.234375	-119.7201156616211	1100.232666015625	653.00048828125	-42.80225372314453	1062.767456054688	730.5482788085938	-107.0181045532227	1109.447998046875	735.282470703125	-63.58847045898438	958.0892333984375	1387.33203125	271.0573120117188	954.64794921875	1325.862548828125	340.1591186523438	972.6287231445312	1058.742309570312	381.4565124511719	910.6087036132812	1047.40087890625	307.7491149902344	1066.832641601562	826.8602294921875	320.7756958007812	1049.275268554688	816.7982177734375	393.8429260253906	999.308349609375	991.9649658203125	385.0523681640625	1081.789794921875	654.8687744140625	332.7664794921875	1099.058715820312	727.1868896484375	333.3675537109375	1063.56787109375	732.3132934570312	393.6084899902344	917.6228637695312	1598.291015625	192.7604827880859	1084.430908203125	1623.772338867188	69.82362365722656	1076.814331054688	1622.265502929688	171.0161437988281	900.9920043945312	1593.391723632812	48.94897079467773	946.09033203125	914.5313720703125	-29.06243705749512	961.6531982421875	919.6282348632812	312.6318969726562	1062.812377929688	946.5517578125	262.2197265625	1071.247192382812	942.5725708007812	21.3643684387207	988.2183227539062	456.2120056152344	-19.78842163085938	990.0431518554688	595.83935546875	-27.00340843200684	904.3848876953125	40.73412322998047	1.730322957038879	943.921630859375	241.3951416015625	-18.61362266540527	1112.494750976562	32.60062789916992	49.28359985351562	1044.3369140625	19.52235984802246	93.49744415283203	1029.440185546875	34.90583419799805	-18.30093193054199	872.8761596679688	35.27555465698242	69.96610260009766	981.5081787109375	453.4385986328125	291.3699340820312	1023.265441894531	713.483154296875	319.0476379394531	918.103759765625	40.94427490234375	265.8076171875	985.2606811523438	333.1719665527344	280.1806335449219	1106.354248046875	35.31055450439453	199.2828826904297	1047.275634765625	31.93099784851074	162.8297119140625	1020.015258789062	26.00385856628418	277.8932495117188	864.2981567382812	43.68645858764648	221.7539520263672	nan	nan	nan	
72	0.71	876.3040161132812	974.168212890625	207.1484222412109	869.3907470703125	974.64208984375	79.24103546142578	870.9815063476562	1029.7587890625	148.1296691894531	1091.379516601562	1217.48681640625	116.335334777832	852.5379638671875	1150.807495117188	137.8010559082031	883.1614990234375	1398.058715820312	112.6088256835938	1042.45166015625	1340.126831054688	110.5910720825195	841.6329956054688	1262.118286132812	189.7319641113281	871.839599609375	1357.861328125	11.55309295654297	956.0955200195312	1375.493530273438	-47.83738327026367	946.7213134765625	1252.965576171875	-112.9197082519531	987.7515869140625	1050.76904296875	-118.2888107299805	919.2449951171875	1033.513549804688	-70.76985931396484	1092.148193359375	813.7698364257812	-51.75761032104492	1063.784912109375	800.5355834960938	-113.1944198608398	1013.05517578125	948.1207275390625	-119.7420425415039	1100.079345703125	652.9649658203125	-42.62789535522461	1062.338134765625	730.4888916015625	-106.8236389160156	1109.13525390625	735.291748046875	-63.49044418334961	958.0899047851562	1387.356567382812	270.9362182617188	954.6697998046875	1325.916625976562	340.0748596191406	972.6112670898438	1058.79931640625	381.4736022949219	910.5043334960938	1047.458618164062	307.7765197753906	1066.851928710938	827.0175170898438	320.6084289550781	1049.266967773438	816.79833984375	393.6531066894531	999.1659545898438	991.9551391601562	385.0646057128906	1082.112060546875	655.1404418945312	332.3239440917969	1099.1748046875	727.3556518554688	333.086669921875	1063.709350585938	732.3595581054688	393.3376770019531	917.6556396484375	1598.250244140625	192.6368560791016	1084.375244140625	1623.729248046875	69.56615447998047	1076.812866210938	1622.30908203125	170.7698516845703	900.9357299804688	1593.297119140625	48.81138610839844	945.882080078125	914.4869384765625	-28.89384460449219	961.68994140625	919.588134765625	312.7554626464844	1062.832275390625	946.557373046875	262.2648315429688	1071.186645507812	942.5156860351562	21.41057014465332	988.2695922851562	456.1931762695312	-19.68460464477539	990.0311279296875	595.7870483398438	-26.91086387634277	904.3882446289062	40.75154113769531	1.758872032165527	943.9462890625	241.3918304443359	-18.52860641479492	1112.494750976562	32.5989875793457	49.28806304931641	1044.341796875	19.5243091583252	93.51419830322266	1029.43701171875	34.92150497436523	-18.28337478637695	872.8735961914062	35.24777603149414	69.98363494873047	981.62109375	453.45751953125	291.4265747070312	1023.598449707031	713.4928588867188	319.0985717773438	918.09765625	40.94004058837891	265.8130187988281	985.3961181640625	333.1721801757812	280.1847839355469	1106.346557617188	35.30544662475586	199.2774047851562	1047.272216796875	31.92129707336426	162.8191528320312	1020.035034179688	26.04360389709473	277.8538513183594	864.2967529296875	43.68978118896484	221.7615966796875	nan	nan	nan	
73	0.72	876.2562866210938	974.1041870117188	207.2663879394531	869.2200317382812	974.5770874023438	79.344970703125	870.8855590820312	1029.722900390625	148.207763671875	1091.402709960938	1217.490356445312	116.1869354248047	852.5440063476562	1150.789916992188	137.8129119873047	883.1331787109375	1398.040771484375	112.4686431884766	1042.397338867188	1340.082153320312	110.4626922607422	841.6492919921875	1262.116821289062	189.6820678710938	871.7991943359375	1357.8134765625	11.47787094116211	956.0257568359375	1375.388671875	-47.94379425048828	946.6064453125	1252.921875	-113.0788192749023	987.3441772460938	1050.624633789062	-118.3756561279297	918.8558349609375	1033.461547851562	-70.68124389648438	1091.851196289062	813.746337890625	-51.83913803100586	1063.278686523438	800.40478515625	-113.1206893920898	1012.523193359375	947.996826171875	-119.7361907958984	1099.958740234375	652.9539184570312	-42.45589447021484	1061.93603515625	730.4091796875	-106.6081008911133	1108.850952148438	735.3206787109375	-63.37633895874023	958.0745849609375	1387.38623046875	270.807861328125	954.6734619140625	1325.970825195312	339.9930419921875	972.5823364257812	1058.845825195312	381.4624633789062	910.39990234375	1047.509887695312	307.7856140136719	1066.913208007812	827.210205078125	320.3632507324219	1049.30029296875	816.8068237304688	393.4139709472656	999.0509643554688	991.9398193359375	385.0406494140625	1082.51904296875	655.4247436523438	331.7703857421875	1099.332763671875	727.53173828125	332.7476196289062	1063.922607421875	732.4072265625	392.9835510253906	917.65869140625	1598.221557617188	192.5016479492188	1084.297241210938	1623.682250976562	69.31053924560547	1076.79931640625	1622.357543945312	170.5241546630859	900.8773803710938	1593.21044921875	48.65668487548828	945.688720703125	914.4415283203125	-28.74569320678711	961.7094116210938	919.5508422851562	312.85888671875	1062.838989257812	946.5597534179688	262.3005065917969	1071.117065429688	942.453125	21.44735908508301	988.3045654296875	456.17529296875	-19.59086227416992	990.009765625	595.7388916015625	-26.83152389526367	904.3866577148438	40.76570129394531	1.787488460540771	943.9625854492188	241.3870849609375	-18.45039176940918	1112.4931640625	32.59710693359375	49.29426574707031	1044.348388671875	19.53251075744629	93.52963256835938	1029.431884765625	34.93951034545898	-18.26640701293945	872.8689575195312	35.22040939331055	70.00046539306641	981.721435546875	453.4907836914062	291.4870910644531	1023.912719726562	713.5069580078125	319.1315002441406	918.0902099609375	40.93399047851562	265.8195190429688	985.5090942382812	333.1759033203125	280.201416015625	1106.333374023438	35.30389022827148	199.2726898193359	1047.266967773438	31.91267967224121	162.8108062744141	1020.034118652344	26.05503463745117	277.8382568359375	864.2918701171875	43.68948745727539	221.7727661132812	nan	nan	nan	
74	0.73	876.2203369140625	974.0404663085938	207.3739166259766	869.0189819335938	974.5142822265625	79.44039154052734	870.8031616210938	1029.6806640625	148.2886505126953	1091.40673828125	1217.486450195312	116.0520706176758	852.5304565429688	1150.766235351562	137.8168182373047	883.0894775390625	1398.013671875	112.3363037109375	1042.330810546875	1340.0341796875	110.3402481079102	841.652587890625	1262.111572265625	189.6322021484375	871.7499389648438	1357.7626953125	11.40645217895508	955.9365844726562	1375.282592773438	-48.05906295776367	946.4888305664062	1252.867065429688	-113.2299041748047	986.9408569335938	1050.473388671875	-118.4251251220703	918.4844970703125	1033.405151367188	-70.56977081298828	1091.55517578125	813.69482421875	-51.87505340576172	1062.796020507812	800.2681274414062	-113.015510559082	1012.005615234375	947.8560791015625	-119.6985702514648	1099.863037109375	652.9691162109375	-42.29045867919922	1061.552001953125	730.3008422851562	-106.3734359741211	1108.590942382812	735.366943359375	-63.26285171508789	958.0421752929688	1387.420043945312	270.6717224121094	954.6593627929688	1326.02392578125	339.9124145507812	972.5404052734375	1058.87744140625	381.4239807128906	910.2949829101562	1047.554077148438	307.7722778320312	1067.015869140625	827.435302734375	320.0373229980469	1049.377563476562	816.8282470703125	393.1275939941406	998.9691772460938	991.9205322265625	384.9741821289062	1082.982299804688	655.7042846679688	331.1230163574219	1099.5341796875	727.7162475585938	332.3446350097656	1064.195678710938	732.4503784179688	392.5486145019531	917.6300048828125	1598.204345703125	192.353271484375	1084.199584960938	1623.633666992188	69.05978393554688	1076.7685546875	1622.408935546875	170.2826690673828	900.815673828125	1593.134399414062	48.48512649536133	945.5164184570312	914.3977661132812	-28.62018013000488	961.715576171875	919.5184326171875	312.9439392089844	1062.83154296875	946.5624389648438	262.3280639648438	1071.044311523438	942.3908081054688	21.47388076782227	988.32421875	456.1595458984375	-19.5105152130127	989.9844360351562	595.6968383789062	-26.76704978942871	904.382568359375	40.77812957763672	1.813565611839294	943.9705810546875	241.3807220458984	-18.38199043273926	1112.489990234375	32.59523010253906	49.30170059204102	1044.355224609375	19.54339027404785	93.54405975341797	1029.425170898438	34.95901107788086	-18.2502326965332	872.863037109375	35.19558715820312	70.01442718505859	981.8065795898438	453.5309448242188	291.5487670898438	1024.213500976562	713.5255737304688	319.1468811035156	918.0833740234375	40.92720794677734	265.8260498046875	985.5986938476562	333.1793518066406	280.2252197265625	1106.31591796875	35.30605697631836	199.2684783935547	1047.259643554688	31.90543746948242	162.8045806884766	1020.013427734375	26.03838157653809	277.8463745117188	864.2832641601562	43.68592071533203	221.7867431640625	nan	nan	nan	
